<svg id="Layer_1" xmlns="http://www.w3.org/2000/svg" viewBox="0 0 512 512"><defs><style>.cls-1,.cls-2{fill:#fff;}.cls-2{stroke:#000;stroke-miterlimit:10;stroke-width:19px;}</style></defs><rect width="512" height="512" rx="32" ry="32"/><g><path class="cls-1" d="M209.96,488.2l-121.24-46.62c-11.31-4.34-11.64-12.09-.79-17.29l116.88,44.94c15.02,5.78,37.23,4.92,51.77-1.96l161.52-76.6c10.01,4.44,9.86,11.82-.67,16.8l-167,79.19c-10.98,5.2-29.13,5.9-40.48,1.53h0Z"/><path class="cls-1" d="M209.96,455.83l-121.24-46.62c-9.62-3.69-11.3-9.85-4.9-14.81l120.99,46.52c15.02,5.78,37.23,4.92,51.77-1.96l165.39-78.43c5.85,4.42,4.38,10.36-4.54,14.58l-166.99,79.19c-10.98,5.2-29.13,5.9-40.48,1.53h0Z"/><path class="cls-1" d="M209.96,427.52l-121.24-46.63c-9.62-3.69-11.3-9.85-4.9-14.81l120.99,46.52c15.02,5.77,37.23,4.91,51.77-1.96l165.39-78.44c5.86,4.42,4.38,10.36-4.54,14.58l-166.99,79.2c-10.98,5.19-29.13,5.89-40.48,1.53h0Z"/><path class="cls-1" d="M209.96,399.2l-121.24-46.63c-9.62-3.69-11.3-9.85-4.9-14.81l120.99,46.52c15.02,5.78,37.23,4.92,51.77-1.96l165.39-78.44c5.86,4.42,4.38,10.37-4.54,14.59l-166.99,79.19c-10.98,5.2-29.13,5.9-40.48,1.53h0Z"/><path class="cls-1" d="M209.96,370.88l-121.24-46.62c-11.35-4.36-11.64-12.15-.66-17.35l87.24-41.38,34.83,18.32c15.36,8.09,37.94,7.06,52.5-2.39l65.74-42.67,88.4,34.01c11.34,4.36,11.65,12.16,.67,17.35l-166.99,79.19c-10.98,5.2-29.13,5.9-40.48,1.53h0Z"/><path class="cls-1" d="M322.47,85.4l101.15,51.52c10.76,5.67,11.21,15.65,1.01,22.27l-169.83,110.23c-10.2,6.62-27.23,7.4-38,1.73h0l-123.36-64.93c-10.77-5.67-11.22-15.65-1.02-22.27l105.11-68.23"/><path class="cls-2" d="M234.66,10.62V85.4h-52.07l73.42,104.84,73.4-104.84h-52.07V10.62s-42.67,0-42.67,0Z"/></g></svg>