<svg xmlns="http://www.w3.org/2000/svg" xmlns:xlink="http://www.w3.org/1999/xlink" viewBox="0,0,256,256" width="50px" height="50px"><g fill="#ffffff" fill-rule="nonzero" stroke="none" stroke-width="1" stroke-linecap="butt" stroke-linejoin="miter" stroke-miterlimit="10" stroke-dasharray="" stroke-dashoffset="0" font-family="none" font-weight="none" font-size="none" text-anchor="none" style="mix-blend-mode: normal"><g transform="scale(5.12,5.12)"><path d="M42,5h-10v-2c0,-1.65234 -1.34766,-3 -3,-3h-8c-1.65234,0 -3,1.34766 -3,3v2h-10c-0.55078,0 -1,0.44922 -1,1c0,0.55078 0.44922,1 1,1h1.08594l3.60938,40.51563c0.125,1.39063 1.30859,2.48438 2.69531,2.48438h19.21484c1.38672,0 2.57031,-1.09375 2.69531,-2.48437l3.61328,-40.51562h1.08594c0.55469,0 1,-0.44922 1,-1c0,-0.55078 -0.44531,-1 -1,-1zM20,44c0,0.55469 -0.44922,1 -1,1c-0.55078,0 -1,-0.44531 -1,-1v-33c0,-0.55078 0.44922,-1 1,-1c0.55078,0 1,0.44922 1,1zM20,3c0,-0.55078 0.44922,-1 1,-1h8c0.55078,0 1,0.44922 1,1v2h-10zM26,44c0,0.55469 -0.44922,1 -1,1c-0.55078,0 -1,-0.44531 -1,-1v-33c0,-0.55078 0.44922,-1 1,-1c0.55078,0 1,0.44922 1,1zM32,44c0,0.55469 -0.44531,1 -1,1c-0.55469,0 -1,-0.44531 -1,-1v-33c0,-0.55078 0.44531,-1 1,-1c0.55469,0 1,0.44922 1,1z"></path></g></g></svg>